 <svg xmlns="http://www.w3.org/2000/svg" viewBox="0 0 48 48"><defs><style>.cls-1{fill:#eaeff0;}.cls-2{fill:#263f52;}.cls-3{fill:#2d4a60;}.cls-4{fill:#009ae0;}</style></defs><title>Cycling</title><g id="Cycling"><circle class="cls-1" cx="9" cy="30" r="8"/><path class="cls-2" d="M9,39a9,9,0,1,1,9-9A9.011,9.011,0,0,1,9,39ZM9,23a7,7,0,1,0,7,7A7.008,7.008,0,0,0,9,23Z"/><circle class="cls-1" cx="39" cy="30" r="8"/><path class="cls-2" d="M39,39a9,9,0,1,1,9-9A9.011,9.011,0,0,1,39,39Zm0-16a7,7,0,1,0,7,7A7.008,7.008,0,0,0,39,23Z"/><path class="cls-3" d="M38,13H36a1,1,0,0,0,0,2h2a3,3,0,0,0,0-6H30a1,1,0,0,0-.912,1.41L31.6,16H18.8L15.912,9.59a1,1,0,0,0-1.824.82l2.859,6.354L8.178,29.431A1,1,0,0,0,9,31H24.006a1,1,0,0,0,.368-.079c.012-.005.024,0,.036-.008s.011-.009.018-.012a1.03,1.03,0,0,0,.278-.2.655.655,0,0,0,.049-.056.8.8,0,0,0,.067-.075l8.083-11.675L38.088,30.41a1,1,0,0,0,1.824-.82L31.546,11H38a1,1,0,0,1,0,2ZM17.905,18.893,22.453,29H10.909Zm6.281,9.082L19.7,18H31.091Z"/><path class="cls-4" d="M19,11H12a1,1,0,0,1,0-2h7a1,1,0,0,1,0,2Z"/></g></svg>